<svg xmlns="http://www.w3.org/2000/svg" width="980" height="358" viewBox="0 0 980 358" role="img" aria-labelledby="libero-suite-success-title libero-suite-success-desc">
<title id="libero-suite-success-title">LIBERO Suite Success</title>
<desc id="libero-suite-success-desc">Mean success rates for released pi05 and pi0-FAST checkpoints.</desc>
<rect width="980" height="358" fill="#ffffff"/>
<text x="24" y="34" font-family="Arial, Helvetica, sans-serif" font-size="20" font-weight="700" fill="#111827">LIBERO Suite Success</text>
<text x="24" y="58" font-family="Arial, Helvetica, sans-serif" font-size="13" fill="#6b7280">Mean success rates for released pi05 and pi0-FAST checkpoints.</text>
<line x1="220.0" y1="72" x2="220.0" y2="320" stroke="#e5e7eb" stroke-width="1"/>
<text x="220.0" y="340" text-anchor="middle" font-family="Arial, Helvetica, sans-serif" font-size="11" fill="#6b7280">0</text>
<line x1="386.0" y1="72" x2="386.0" y2="320" stroke="#e5e7eb" stroke-width="1"/>
<text x="386.0" y="340" text-anchor="middle" font-family="Arial, Helvetica, sans-serif" font-size="11" fill="#6b7280">25</text>
<line x1="552.0" y1="72" x2="552.0" y2="320" stroke="#e5e7eb" stroke-width="1"/>
<text x="552.0" y="340" text-anchor="middle" font-family="Arial, Helvetica, sans-serif" font-size="11" fill="#6b7280">50</text>
<line x1="718.0" y1="72" x2="718.0" y2="320" stroke="#e5e7eb" stroke-width="1"/>
<text x="718.0" y="340" text-anchor="middle" font-family="Arial, Helvetica, sans-serif" font-size="11" fill="#6b7280">75</text>
<line x1="884.0" y1="72" x2="884.0" y2="320" stroke="#e5e7eb" stroke-width="1"/>
<text x="884.0" y="340" text-anchor="middle" font-family="Arial, Helvetica, sans-serif" font-size="11" fill="#6b7280">100</text>
<text x="204" y="105" text-anchor="end" font-family="Arial, Helvetica, sans-serif" font-size="12" fill="#111827">pi05 spatial</text>
<rect x="220" y="94" width="664" height="14" rx="2" fill="#f3f4f6"/>
<rect x="220" y="94" width="646.1" height="14" rx="2" fill="#2563eb"/>
<text x="874.1" y="105" font-family="Arial, Helvetica, sans-serif" font-size="12" fill="#111827">97.3%</text>
<text x="204" y="133" text-anchor="end" font-family="Arial, Helvetica, sans-serif" font-size="12" fill="#111827">pi05 object</text>
<rect x="220" y="122" width="664" height="14" rx="2" fill="#f3f4f6"/>
<rect x="220" y="122" width="654.7" height="14" rx="2" fill="#2563eb"/>
<text x="882.7" y="133" font-family="Arial, Helvetica, sans-serif" font-size="12" fill="#111827">98.6%</text>
<text x="204" y="161" text-anchor="end" font-family="Arial, Helvetica, sans-serif" font-size="12" fill="#111827">pi05 goal</text>
<rect x="220" y="150" width="664" height="14" rx="2" fill="#f3f4f6"/>
<rect x="220" y="150" width="646.1" height="14" rx="2" fill="#2563eb"/>
<text x="874.1" y="161" font-family="Arial, Helvetica, sans-serif" font-size="12" fill="#111827">97.3%</text>
<text x="204" y="189" text-anchor="end" font-family="Arial, Helvetica, sans-serif" font-size="12" fill="#111827">pi05 10</text>
<rect x="220" y="178" width="664" height="14" rx="2" fill="#f3f4f6"/>
<rect x="220" y="178" width="610.2" height="14" rx="2" fill="#2563eb"/>
<text x="838.2" y="189" font-family="Arial, Helvetica, sans-serif" font-size="12" fill="#111827">91.9%</text>
<text x="204" y="217" text-anchor="end" font-family="Arial, Helvetica, sans-serif" font-size="12" fill="#111827">pi0-FAST spatial</text>
<rect x="220" y="206" width="664" height="14" rx="2" fill="#f3f4f6"/>
<rect x="220" y="206" width="619.5" height="14" rx="2" fill="#16a34a"/>
<text x="847.5" y="217" font-family="Arial, Helvetica, sans-serif" font-size="12" fill="#111827">93.3%</text>
<text x="204" y="245" text-anchor="end" font-family="Arial, Helvetica, sans-serif" font-size="12" fill="#111827">pi0-FAST object</text>
<rect x="220" y="234" width="664" height="14" rx="2" fill="#f3f4f6"/>
<rect x="220" y="234" width="636.8" height="14" rx="2" fill="#16a34a"/>
<text x="864.8" y="245" font-family="Arial, Helvetica, sans-serif" font-size="12" fill="#111827">95.9%</text>
<text x="204" y="273" text-anchor="end" font-family="Arial, Helvetica, sans-serif" font-size="12" fill="#111827">pi0-FAST goal</text>
<rect x="220" y="262" width="664" height="14" rx="2" fill="#f3f4f6"/>
<rect x="220" y="262" width="610.9" height="14" rx="2" fill="#16a34a"/>
<text x="838.9" y="273" font-family="Arial, Helvetica, sans-serif" font-size="12" fill="#111827">92.0%</text>
<text x="204" y="301" text-anchor="end" font-family="Arial, Helvetica, sans-serif" font-size="12" fill="#111827">pi0-FAST 10</text>
<rect x="220" y="290" width="664" height="14" rx="2" fill="#f3f4f6"/>
<rect x="220" y="290" width="417.0" height="14" rx="2" fill="#16a34a"/>
<text x="645.0" y="301" font-family="Arial, Helvetica, sans-serif" font-size="12" fill="#111827">62.8%</text>
<text x="552.0" y="354" text-anchor="middle" font-family="Arial, Helvetica, sans-serif" font-size="11" fill="#6b7280">success rate (%)</text>
</svg>
