<svg xmlns="http://www.w3.org/2000/svg" width="980" height="1214" viewBox="0 0 980 1214" role="img" aria-labelledby="metaworld-pi05-ml45-tasks-title metaworld-pi05-ml45-tasks-desc">
<title id="metaworld-pi05-ml45-tasks-title">MetaWorld pi05 ML45 Train</title>
<desc id="metaworld-pi05-ml45-tasks-desc">Mean success rate: 91.3% across 45 tasks.</desc>
<rect width="980" height="1214" fill="#ffffff"/>
<text x="24" y="34" font-family="Arial, Helvetica, sans-serif" font-size="20" font-weight="700" fill="#111827">MetaWorld pi05 ML45 Train</text>
<text x="24" y="58" font-family="Arial, Helvetica, sans-serif" font-size="13" fill="#6b7280">Mean success rate: 91.3% across 45 tasks.</text>
<line x1="300.0" y1="72" x2="300.0" y2="1176" stroke="#e5e7eb" stroke-width="1"/>
<text x="300.0" y="1196" text-anchor="middle" font-family="Arial, Helvetica, sans-serif" font-size="11" fill="#6b7280">0</text>
<line x1="446.0" y1="72" x2="446.0" y2="1176" stroke="#e5e7eb" stroke-width="1"/>
<text x="446.0" y="1196" text-anchor="middle" font-family="Arial, Helvetica, sans-serif" font-size="11" fill="#6b7280">25</text>
<line x1="592.0" y1="72" x2="592.0" y2="1176" stroke="#e5e7eb" stroke-width="1"/>
<text x="592.0" y="1196" text-anchor="middle" font-family="Arial, Helvetica, sans-serif" font-size="11" fill="#6b7280">50</text>
<line x1="738.0" y1="72" x2="738.0" y2="1176" stroke="#e5e7eb" stroke-width="1"/>
<text x="738.0" y="1196" text-anchor="middle" font-family="Arial, Helvetica, sans-serif" font-size="11" fill="#6b7280">75</text>
<line x1="884.0" y1="72" x2="884.0" y2="1176" stroke="#e5e7eb" stroke-width="1"/>
<text x="884.0" y="1196" text-anchor="middle" font-family="Arial, Helvetica, sans-serif" font-size="11" fill="#6b7280">100</text>
<text x="284" y="105" text-anchor="end" font-family="Arial, Helvetica, sans-serif" font-size="12" fill="#111827">assembly-v3</text>
<rect x="300" y="94" width="584" height="14" rx="2" fill="#f3f4f6"/>
<rect x="300" y="94" width="584.0" height="14" rx="2" fill="#2563eb"/>
<text x="892.0" y="105" font-family="Arial, Helvetica, sans-serif" font-size="12" fill="#111827">100.0%</text>
<text x="284" y="129" text-anchor="end" font-family="Arial, Helvetica, sans-serif" font-size="12" fill="#111827">button-press-topdown-v3</text>
<rect x="300" y="118" width="584" height="14" rx="2" fill="#f3f4f6"/>
<rect x="300" y="118" width="584.0" height="14" rx="2" fill="#2563eb"/>
<text x="892.0" y="129" font-family="Arial, Helvetica, sans-serif" font-size="12" fill="#111827">100.0%</text>
<text x="284" y="153" text-anchor="end" font-family="Arial, Helvetica, sans-serif" font-size="12" fill="#111827">button-press-topdown-wall-v3</text>
<rect x="300" y="142" width="584" height="14" rx="2" fill="#f3f4f6"/>
<rect x="300" y="142" width="584.0" height="14" rx="2" fill="#2563eb"/>
<text x="892.0" y="153" font-family="Arial, Helvetica, sans-serif" font-size="12" fill="#111827">100.0%</text>
<text x="284" y="177" text-anchor="end" font-family="Arial, Helvetica, sans-serif" font-size="12" fill="#111827">button-press-v3</text>
<rect x="300" y="166" width="584" height="14" rx="2" fill="#f3f4f6"/>
<rect x="300" y="166" width="584.0" height="14" rx="2" fill="#2563eb"/>
<text x="892.0" y="177" font-family="Arial, Helvetica, sans-serif" font-size="12" fill="#111827">100.0%</text>
<text x="284" y="201" text-anchor="end" font-family="Arial, Helvetica, sans-serif" font-size="12" fill="#111827">button-press-wall-v3</text>
<rect x="300" y="190" width="584" height="14" rx="2" fill="#f3f4f6"/>
<rect x="300" y="190" width="584.0" height="14" rx="2" fill="#2563eb"/>
<text x="892.0" y="201" font-family="Arial, Helvetica, sans-serif" font-size="12" fill="#111827">100.0%</text>
<text x="284" y="225" text-anchor="end" font-family="Arial, Helvetica, sans-serif" font-size="12" fill="#111827">coffee-button-v3</text>
<rect x="300" y="214" width="584" height="14" rx="2" fill="#f3f4f6"/>
<rect x="300" y="214" width="584.0" height="14" rx="2" fill="#2563eb"/>
<text x="892.0" y="225" font-family="Arial, Helvetica, sans-serif" font-size="12" fill="#111827">100.0%</text>
<text x="284" y="249" text-anchor="end" font-family="Arial, Helvetica, sans-serif" font-size="12" fill="#111827">coffee-pull-v3</text>
<rect x="300" y="238" width="584" height="14" rx="2" fill="#f3f4f6"/>
<rect x="300" y="238" width="584.0" height="14" rx="2" fill="#2563eb"/>
<text x="892.0" y="249" font-family="Arial, Helvetica, sans-serif" font-size="12" fill="#111827">100.0%</text>
<text x="284" y="273" text-anchor="end" font-family="Arial, Helvetica, sans-serif" font-size="12" fill="#111827">coffee-push-v3</text>
<rect x="300" y="262" width="584" height="14" rx="2" fill="#f3f4f6"/>
<rect x="300" y="262" width="584.0" height="14" rx="2" fill="#2563eb"/>
<text x="892.0" y="273" font-family="Arial, Helvetica, sans-serif" font-size="12" fill="#111827">100.0%</text>
<text x="284" y="297" text-anchor="end" font-family="Arial, Helvetica, sans-serif" font-size="12" fill="#111827">door-close-v3</text>
<rect x="300" y="286" width="584" height="14" rx="2" fill="#f3f4f6"/>
<rect x="300" y="286" width="584.0" height="14" rx="2" fill="#2563eb"/>
<text x="892.0" y="297" font-family="Arial, Helvetica, sans-serif" font-size="12" fill="#111827">100.0%</text>
<text x="284" y="321" text-anchor="end" font-family="Arial, Helvetica, sans-serif" font-size="12" fill="#111827">door-open-v3</text>
<rect x="300" y="310" width="584" height="14" rx="2" fill="#f3f4f6"/>
<rect x="300" y="310" width="584.0" height="14" rx="2" fill="#2563eb"/>
<text x="892.0" y="321" font-family="Arial, Helvetica, sans-serif" font-size="12" fill="#111827">100.0%</text>
<text x="284" y="345" text-anchor="end" font-family="Arial, Helvetica, sans-serif" font-size="12" fill="#111827">drawer-close-v3</text>
<rect x="300" y="334" width="584" height="14" rx="2" fill="#f3f4f6"/>
<rect x="300" y="334" width="584.0" height="14" rx="2" fill="#2563eb"/>
<text x="892.0" y="345" font-family="Arial, Helvetica, sans-serif" font-size="12" fill="#111827">100.0%</text>
<text x="284" y="369" text-anchor="end" font-family="Arial, Helvetica, sans-serif" font-size="12" fill="#111827">drawer-open-v3</text>
<rect x="300" y="358" width="584" height="14" rx="2" fill="#f3f4f6"/>
<rect x="300" y="358" width="584.0" height="14" rx="2" fill="#2563eb"/>
<text x="892.0" y="369" font-family="Arial, Helvetica, sans-serif" font-size="12" fill="#111827">100.0%</text>
<text x="284" y="393" text-anchor="end" font-family="Arial, Helvetica, sans-serif" font-size="12" fill="#111827">faucet-close-v3</text>
<rect x="300" y="382" width="584" height="14" rx="2" fill="#f3f4f6"/>
<rect x="300" y="382" width="584.0" height="14" rx="2" fill="#2563eb"/>
<text x="892.0" y="393" font-family="Arial, Helvetica, sans-serif" font-size="12" fill="#111827">100.0%</text>
<text x="284" y="417" text-anchor="end" font-family="Arial, Helvetica, sans-serif" font-size="12" fill="#111827">faucet-open-v3</text>
<rect x="300" y="406" width="584" height="14" rx="2" fill="#f3f4f6"/>
<rect x="300" y="406" width="584.0" height="14" rx="2" fill="#2563eb"/>
<text x="892.0" y="417" font-family="Arial, Helvetica, sans-serif" font-size="12" fill="#111827">100.0%</text>
<text x="284" y="441" text-anchor="end" font-family="Arial, Helvetica, sans-serif" font-size="12" fill="#111827">hammer-v3</text>
<rect x="300" y="430" width="584" height="14" rx="2" fill="#f3f4f6"/>
<rect x="300" y="430" width="584.0" height="14" rx="2" fill="#2563eb"/>
<text x="892.0" y="441" font-family="Arial, Helvetica, sans-serif" font-size="12" fill="#111827">100.0%</text>
<text x="284" y="465" text-anchor="end" font-family="Arial, Helvetica, sans-serif" font-size="12" fill="#111827">handle-press-side-v3</text>
<rect x="300" y="454" width="584" height="14" rx="2" fill="#f3f4f6"/>
<rect x="300" y="454" width="584.0" height="14" rx="2" fill="#2563eb"/>
<text x="892.0" y="465" font-family="Arial, Helvetica, sans-serif" font-size="12" fill="#111827">100.0%</text>
<text x="284" y="489" text-anchor="end" font-family="Arial, Helvetica, sans-serif" font-size="12" fill="#111827">handle-press-v3</text>
<rect x="300" y="478" width="584" height="14" rx="2" fill="#f3f4f6"/>
<rect x="300" y="478" width="584.0" height="14" rx="2" fill="#2563eb"/>
<text x="892.0" y="489" font-family="Arial, Helvetica, sans-serif" font-size="12" fill="#111827">100.0%</text>
<text x="284" y="513" text-anchor="end" font-family="Arial, Helvetica, sans-serif" font-size="12" fill="#111827">lever-pull-v3</text>
<rect x="300" y="502" width="584" height="14" rx="2" fill="#f3f4f6"/>
<rect x="300" y="502" width="584.0" height="14" rx="2" fill="#2563eb"/>
<text x="892.0" y="513" font-family="Arial, Helvetica, sans-serif" font-size="12" fill="#111827">100.0%</text>
<text x="284" y="537" text-anchor="end" font-family="Arial, Helvetica, sans-serif" font-size="12" fill="#111827">peg-insert-side-v3</text>
<rect x="300" y="526" width="584" height="14" rx="2" fill="#f3f4f6"/>
<rect x="300" y="526" width="584.0" height="14" rx="2" fill="#2563eb"/>
<text x="892.0" y="537" font-family="Arial, Helvetica, sans-serif" font-size="12" fill="#111827">100.0%</text>
<text x="284" y="561" text-anchor="end" font-family="Arial, Helvetica, sans-serif" font-size="12" fill="#111827">pick-place-wall-v3</text>
<rect x="300" y="550" width="584" height="14" rx="2" fill="#f3f4f6"/>
<rect x="300" y="550" width="584.0" height="14" rx="2" fill="#2563eb"/>
<text x="892.0" y="561" font-family="Arial, Helvetica, sans-serif" font-size="12" fill="#111827">100.0%</text>
<text x="284" y="585" text-anchor="end" font-family="Arial, Helvetica, sans-serif" font-size="12" fill="#111827">plate-slide-back-side-v3</text>
<rect x="300" y="574" width="584" height="14" rx="2" fill="#f3f4f6"/>
<rect x="300" y="574" width="584.0" height="14" rx="2" fill="#2563eb"/>
<text x="892.0" y="585" font-family="Arial, Helvetica, sans-serif" font-size="12" fill="#111827">100.0%</text>
<text x="284" y="609" text-anchor="end" font-family="Arial, Helvetica, sans-serif" font-size="12" fill="#111827">plate-slide-back-v3</text>
<rect x="300" y="598" width="584" height="14" rx="2" fill="#f3f4f6"/>
<rect x="300" y="598" width="584.0" height="14" rx="2" fill="#2563eb"/>
<text x="892.0" y="609" font-family="Arial, Helvetica, sans-serif" font-size="12" fill="#111827">100.0%</text>
<text x="284" y="633" text-anchor="end" font-family="Arial, Helvetica, sans-serif" font-size="12" fill="#111827">plate-slide-side-v3</text>
<rect x="300" y="622" width="584" height="14" rx="2" fill="#f3f4f6"/>
<rect x="300" y="622" width="584.0" height="14" rx="2" fill="#2563eb"/>
<text x="892.0" y="633" font-family="Arial, Helvetica, sans-serif" font-size="12" fill="#111827">100.0%</text>
<text x="284" y="657" text-anchor="end" font-family="Arial, Helvetica, sans-serif" font-size="12" fill="#111827">plate-slide-v3</text>
<rect x="300" y="646" width="584" height="14" rx="2" fill="#f3f4f6"/>
<rect x="300" y="646" width="584.0" height="14" rx="2" fill="#2563eb"/>
<text x="892.0" y="657" font-family="Arial, Helvetica, sans-serif" font-size="12" fill="#111827">100.0%</text>
<text x="284" y="681" text-anchor="end" font-family="Arial, Helvetica, sans-serif" font-size="12" fill="#111827">push-v3</text>
<rect x="300" y="670" width="584" height="14" rx="2" fill="#f3f4f6"/>
<rect x="300" y="670" width="584.0" height="14" rx="2" fill="#2563eb"/>
<text x="892.0" y="681" font-family="Arial, Helvetica, sans-serif" font-size="12" fill="#111827">100.0%</text>
<text x="284" y="705" text-anchor="end" font-family="Arial, Helvetica, sans-serif" font-size="12" fill="#111827">push-wall-v3</text>
<rect x="300" y="694" width="584" height="14" rx="2" fill="#f3f4f6"/>
<rect x="300" y="694" width="584.0" height="14" rx="2" fill="#2563eb"/>
<text x="892.0" y="705" font-family="Arial, Helvetica, sans-serif" font-size="12" fill="#111827">100.0%</text>
<text x="284" y="729" text-anchor="end" font-family="Arial, Helvetica, sans-serif" font-size="12" fill="#111827">sweep-v3</text>
<rect x="300" y="718" width="584" height="14" rx="2" fill="#f3f4f6"/>
<rect x="300" y="718" width="584.0" height="14" rx="2" fill="#2563eb"/>
<text x="892.0" y="729" font-family="Arial, Helvetica, sans-serif" font-size="12" fill="#111827">100.0%</text>
<text x="284" y="753" text-anchor="end" font-family="Arial, Helvetica, sans-serif" font-size="12" fill="#111827">window-close-v3</text>
<rect x="300" y="742" width="584" height="14" rx="2" fill="#f3f4f6"/>
<rect x="300" y="742" width="584.0" height="14" rx="2" fill="#2563eb"/>
<text x="892.0" y="753" font-family="Arial, Helvetica, sans-serif" font-size="12" fill="#111827">100.0%</text>
<text x="284" y="777" text-anchor="end" font-family="Arial, Helvetica, sans-serif" font-size="12" fill="#111827">window-open-v3</text>
<rect x="300" y="766" width="584" height="14" rx="2" fill="#f3f4f6"/>
<rect x="300" y="766" width="584.0" height="14" rx="2" fill="#2563eb"/>
<text x="892.0" y="777" font-family="Arial, Helvetica, sans-serif" font-size="12" fill="#111827">100.0%</text>
<text x="284" y="801" text-anchor="end" font-family="Arial, Helvetica, sans-serif" font-size="12" fill="#111827">disassemble-v3</text>
<rect x="300" y="790" width="584" height="14" rx="2" fill="#f3f4f6"/>
<rect x="300" y="790" width="545.1" height="14" rx="2" fill="#2563eb"/>
<text x="853.1" y="801" font-family="Arial, Helvetica, sans-serif" font-size="12" fill="#111827">93.3%</text>
<text x="284" y="825" text-anchor="end" font-family="Arial, Helvetica, sans-serif" font-size="12" fill="#111827">peg-unplug-side-v3</text>
<rect x="300" y="814" width="584" height="14" rx="2" fill="#f3f4f6"/>
<rect x="300" y="814" width="545.1" height="14" rx="2" fill="#2563eb"/>
<text x="853.1" y="825" font-family="Arial, Helvetica, sans-serif" font-size="12" fill="#111827">93.3%</text>
<text x="284" y="849" text-anchor="end" font-family="Arial, Helvetica, sans-serif" font-size="12" fill="#111827">stick-push-v3</text>
<rect x="300" y="838" width="584" height="14" rx="2" fill="#f3f4f6"/>
<rect x="300" y="838" width="545.1" height="14" rx="2" fill="#2563eb"/>
<text x="853.1" y="849" font-family="Arial, Helvetica, sans-serif" font-size="12" fill="#111827">93.3%</text>
<text x="284" y="873" text-anchor="end" font-family="Arial, Helvetica, sans-serif" font-size="12" fill="#111827">sweep-into-v3</text>
<rect x="300" y="862" width="584" height="14" rx="2" fill="#f3f4f6"/>
<rect x="300" y="862" width="545.1" height="14" rx="2" fill="#2563eb"/>
<text x="853.1" y="873" font-family="Arial, Helvetica, sans-serif" font-size="12" fill="#111827">93.3%</text>
<text x="284" y="897" text-anchor="end" font-family="Arial, Helvetica, sans-serif" font-size="12" fill="#111827">basketball-v3</text>
<rect x="300" y="886" width="584" height="14" rx="2" fill="#f3f4f6"/>
<rect x="300" y="886" width="506.1" height="14" rx="2" fill="#2563eb"/>
<text x="814.1" y="897" font-family="Arial, Helvetica, sans-serif" font-size="12" fill="#111827">86.7%</text>
<text x="284" y="921" text-anchor="end" font-family="Arial, Helvetica, sans-serif" font-size="12" fill="#111827">handle-pull-v3</text>
<rect x="300" y="910" width="584" height="14" rx="2" fill="#f3f4f6"/>
<rect x="300" y="910" width="506.1" height="14" rx="2" fill="#2563eb"/>
<text x="814.1" y="921" font-family="Arial, Helvetica, sans-serif" font-size="12" fill="#111827">86.7%</text>
<text x="284" y="945" text-anchor="end" font-family="Arial, Helvetica, sans-serif" font-size="12" fill="#111827">pick-place-v3</text>
<rect x="300" y="934" width="584" height="14" rx="2" fill="#f3f4f6"/>
<rect x="300" y="934" width="506.1" height="14" rx="2" fill="#2563eb"/>
<text x="814.1" y="945" font-family="Arial, Helvetica, sans-serif" font-size="12" fill="#111827">86.7%</text>
<text x="284" y="969" text-anchor="end" font-family="Arial, Helvetica, sans-serif" font-size="12" fill="#111827">push-back-v3</text>
<rect x="300" y="958" width="584" height="14" rx="2" fill="#f3f4f6"/>
<rect x="300" y="958" width="506.1" height="14" rx="2" fill="#2563eb"/>
<text x="814.1" y="969" font-family="Arial, Helvetica, sans-serif" font-size="12" fill="#111827">86.7%</text>
<text x="284" y="993" text-anchor="end" font-family="Arial, Helvetica, sans-serif" font-size="12" fill="#111827">shelf-place-v3</text>
<rect x="300" y="982" width="584" height="14" rx="2" fill="#f3f4f6"/>
<rect x="300" y="982" width="506.1" height="14" rx="2" fill="#2563eb"/>
<text x="814.1" y="993" font-family="Arial, Helvetica, sans-serif" font-size="12" fill="#111827">86.7%</text>
<text x="284" y="1017" text-anchor="end" font-family="Arial, Helvetica, sans-serif" font-size="12" fill="#111827">reach-wall-v3</text>
<rect x="300" y="1006" width="584" height="14" rx="2" fill="#f3f4f6"/>
<rect x="300" y="1006" width="467.2" height="14" rx="2" fill="#2563eb"/>
<text x="775.2" y="1017" font-family="Arial, Helvetica, sans-serif" font-size="12" fill="#111827">80.0%</text>
<text x="284" y="1041" text-anchor="end" font-family="Arial, Helvetica, sans-serif" font-size="12" fill="#111827">stick-pull-v3</text>
<rect x="300" y="1030" width="584" height="14" rx="2" fill="#f3f4f6"/>
<rect x="300" y="1030" width="467.2" height="14" rx="2" fill="#2563eb"/>
<text x="775.2" y="1041" font-family="Arial, Helvetica, sans-serif" font-size="12" fill="#111827">80.0%</text>
<text x="284" y="1065" text-anchor="end" font-family="Arial, Helvetica, sans-serif" font-size="12" fill="#111827">pick-out-of-hole-v3</text>
<rect x="300" y="1054" width="584" height="14" rx="2" fill="#f3f4f6"/>
<rect x="300" y="1054" width="428.3" height="14" rx="2" fill="#2563eb"/>
<text x="736.3" y="1065" font-family="Arial, Helvetica, sans-serif" font-size="12" fill="#111827">73.3%</text>
<text x="284" y="1089" text-anchor="end" font-family="Arial, Helvetica, sans-serif" font-size="12" fill="#111827">reach-v3</text>
<rect x="300" y="1078" width="584" height="14" rx="2" fill="#f3f4f6"/>
<rect x="300" y="1078" width="428.3" height="14" rx="2" fill="#2563eb"/>
<text x="736.3" y="1089" font-family="Arial, Helvetica, sans-serif" font-size="12" fill="#111827">73.3%</text>
<text x="284" y="1113" text-anchor="end" font-family="Arial, Helvetica, sans-serif" font-size="12" fill="#111827">handle-pull-side-v3</text>
<rect x="300" y="1102" width="584" height="14" rx="2" fill="#f3f4f6"/>
<rect x="300" y="1102" width="350.4" height="14" rx="2" fill="#2563eb"/>
<text x="658.4" y="1113" font-family="Arial, Helvetica, sans-serif" font-size="12" fill="#111827">60.0%</text>
<text x="284" y="1137" text-anchor="end" font-family="Arial, Helvetica, sans-serif" font-size="12" fill="#111827">soccer-v3</text>
<rect x="300" y="1126" width="584" height="14" rx="2" fill="#f3f4f6"/>
<rect x="300" y="1126" width="194.7" height="14" rx="2" fill="#2563eb"/>
<text x="502.7" y="1137" font-family="Arial, Helvetica, sans-serif" font-size="12" fill="#111827">33.3%</text>
<text x="284" y="1161" text-anchor="end" font-family="Arial, Helvetica, sans-serif" font-size="12" fill="#111827">dial-turn-v3</text>
<rect x="300" y="1150" width="584" height="14" rx="2" fill="#f3f4f6"/>
<rect x="300" y="1150" width="0.0" height="14" rx="2" fill="#2563eb"/>
<text x="308.0" y="1161" font-family="Arial, Helvetica, sans-serif" font-size="12" fill="#111827">0.0%</text>
<text x="592.0" y="1210" text-anchor="middle" font-family="Arial, Helvetica, sans-serif" font-size="11" fill="#6b7280">success rate (%)</text>
</svg>
